<svg width="377" height="745" viewBox="0 0 377 745" fill="none" xmlns="http://www.w3.org/2000/svg">
<path d="M195.391 697.327C193.181 680.499 199.45 661.27 202.871 644.899C203.736 640.701 204.663 636.514 205.59 632.327C202.949 629.47 200.375 627.119 197.167 624.912C189.535 619.709 181.765 614.504 174.571 608.728C161.409 598.18 149.696 583.494 145.267 566.963C142.982 558.469 142.629 549.598 143.086 540.857C143.594 531.315 143.257 522.561 142.881 513.079C156.722 527.222 166.637 545.953 171.248 565.175C173.941 576.429 178.524 586.994 184.776 596.702C191.675 607.393 201.048 616.584 206.561 628.175C208.067 621.354 209.862 614.614 211.944 607.954C213.169 604.064 214.493 600.181 215.822 596.337C217.751 590.749 217.871 591.505 213.916 587.714C204.144 578.357 204.591 562.72 201.178 550.533C196.775 534.791 182.766 527.685 172.994 515.812C163.057 503.743 158.879 488.348 153.168 474.089C163.46 480.066 173.494 483.224 181.673 492.377C185.54 496.695 189.11 501.312 193.538 505.08C198.483 509.314 204.31 511.984 208.75 516.88C227.175 537.149 212.667 564.277 218.832 587.869C224.372 572.523 230.57 557.366 237.958 542.803C239.78 539.23 241.563 538.04 239.815 534.152C238.115 530.336 235.819 526.798 233.349 523.442C228.222 516.517 222.657 510.76 219.486 502.603C213.849 488.155 205.355 475.021 200.047 460.511C196.078 449.645 191.23 429.682 196.365 418.433C203.337 438.271 219.547 452.791 229.702 470.796C239.967 489.025 245.376 511.41 243.571 532.302C246.451 527.161 249.419 522.087 252.471 517.041C256.425 510.448 256.603 506.144 254.142 498.704C249.571 484.967 243.151 472.368 240.013 458.082C234.491 432.779 238.275 404.448 250.889 381.537C251.564 402.752 264.362 420.364 261.162 442.532C259.726 452.554 263.605 461.707 265.257 471.395C267.015 481.585 265.125 492.202 261.737 501.851C268.655 490.74 271.279 477.606 278.331 466.457C286.053 454.248 295.592 440.943 306.782 431.699C318.745 421.855 332.768 415.126 346.068 407.422C352.558 403.642 359.151 399.59 364.934 394.813C368.808 391.62 373.999 388.944 377.408 385.536C370.654 396.982 360.797 406.266 354.329 417.932C349.364 426.899 341.927 433.977 336.367 441.756C312.315 465.681 277.248 476.293 261.71 508.474C278.208 492.376 298.743 481.427 319.416 471.807C329.454 467.136 338.449 461.633 346.69 454.19C355.317 446.378 363.281 437.604 373.506 431.818C369.172 434.974 368.209 440.671 365.713 445.127C361.681 452.325 357.243 459.458 352.692 466.329C344.693 478.397 334.012 487.157 320.704 492.86C304.957 499.602 287.201 501.242 272.31 509.931C269.735 511.424 266.92 512.455 264.073 513.251C258.558 514.841 258.279 515.571 255.754 520.844C251.767 529.126 247.764 537.429 243.86 545.74C259.441 532.718 283.505 521.039 303.661 518.226C315.16 516.63 327.2 517.3 338.673 518.62C348.981 519.819 360.075 523.647 370.423 520.996C357.802 527.4 345.934 535.427 332.278 539.571C317.73 544.012 302.613 544.487 287.562 545.607C271.86 546.754 256.14 548.795 240.95 553.025C237.775 553.886 233.308 568.653 231.878 571.896C228.883 578.698 226.32 585.62 223.951 592.655C246.179 587.405 263.775 571.517 284.397 562.558C294.795 558.057 305.715 557.172 316.602 554.548C327.142 552.009 336.351 546.319 345.88 541.399C341.029 545.139 337.532 550.264 333.116 554.441C327.551 559.664 321.426 564.248 315.065 568.408C302.836 576.404 289.616 584.552 275.542 588.831C261.563 593.078 246.737 592.622 232.466 595.421C229.065 596.074 225.68 596.843 222.322 597.669C220.893 602.101 219.547 606.561 218.306 611.067C216.283 618.472 214.61 625.969 213.036 633.473C225.101 635.071 235.545 629.137 247.247 628.464C258.615 627.817 269.931 629.297 281.413 628.456C292.01 627.674 302.465 627.902 312.745 630.828C320.205 632.963 331.254 635.707 336.522 641.761C314.259 639.782 293.141 650.076 271.013 650.437C251.002 650.773 229.531 645.973 212.764 634.698C210.038 647.964 208.456 661.335 206.64 674.737C205.831 680.692 205.199 686.642 204.629 692.604C204.014 699.128 200.519 697.296 195.379 697.388C197.018 697.347 194.537 690.941 195.379 697.388L195.391 697.327Z" fill="#FFF4BE"/>
<path d="M134.391 387.327C132.181 370.499 138.45 351.27 141.871 334.899C142.736 330.701 143.663 326.514 144.59 322.327C141.949 319.47 139.375 317.119 136.167 314.912C128.535 309.709 120.765 304.504 113.571 298.728C100.409 288.18 88.696 273.494 84.267 256.963C81.9823 248.469 81.629 239.598 82.0858 230.857C82.5943 221.315 82.2566 212.561 81.8811 203.079C95.7218 217.222 105.637 235.953 110.248 255.175C112.941 266.429 117.524 276.994 123.776 286.702C130.675 297.393 140.048 306.584 145.561 318.175C147.067 311.354 148.862 304.614 150.944 297.954C152.169 294.064 153.493 290.181 154.822 286.337C156.751 280.749 156.871 281.505 152.916 277.714C143.144 268.357 143.591 252.72 140.178 240.533C135.775 224.791 121.766 217.685 111.994 205.812C102.057 193.743 97.8788 178.348 92.1679 164.089C102.46 170.066 112.494 173.224 120.673 182.377C124.54 186.695 128.11 191.312 132.538 195.08C137.483 199.314 143.31 201.984 147.75 206.88C166.175 227.149 151.667 254.277 157.832 277.869C163.372 262.523 169.57 247.366 176.958 232.803C178.78 229.23 180.563 228.04 178.815 224.152C177.115 220.336 174.819 216.798 172.349 213.442C167.222 206.517 161.657 200.76 158.486 192.603C152.849 178.155 144.355 165.021 139.047 150.511C135.078 139.645 130.23 119.682 135.365 108.433C142.337 128.271 158.547 142.791 168.702 160.796C178.967 179.025 184.376 201.41 182.571 222.302C185.451 217.161 188.419 212.087 191.471 207.041C195.425 200.448 195.603 196.144 193.142 188.704C188.571 174.967 182.151 162.368 179.013 148.082C173.491 122.779 177.275 94.4484 189.889 71.5372C190.564 92.7516 203.362 110.364 200.162 132.532C198.726 142.554 202.605 151.707 204.257 161.395C206.015 171.585 204.125 182.202 200.737 191.851C207.655 180.74 210.279 167.606 217.331 156.457C225.053 144.248 234.592 130.943 245.782 121.699C257.745 111.855 271.768 105.126 285.068 97.4224C291.558 93.6417 298.151 89.5896 303.934 84.8134C307.808 81.6202 312.999 78.9445 316.408 75.536C309.654 86.982 299.797 96.2664 293.329 107.932C288.364 116.899 280.927 123.977 275.367 131.756C251.315 155.681 216.248 166.293 200.71 198.474C217.208 182.376 237.743 171.427 258.416 161.807C268.454 157.136 277.449 151.633 285.69 144.19C294.317 136.378 302.281 127.604 312.506 121.818C308.172 124.974 307.209 130.671 304.713 135.127C300.681 142.325 296.243 149.458 291.692 156.329C283.693 168.397 273.012 177.157 259.704 182.86C243.957 189.602 226.201 191.242 211.31 199.931C208.735 201.424 205.92 202.455 203.073 203.251C197.558 204.841 197.279 205.571 194.754 210.844C190.767 219.126 186.764 227.429 182.86 235.74C198.441 222.718 222.505 211.039 242.661 208.226C254.16 206.63 266.2 207.3 277.673 208.62C287.981 209.819 299.075 213.647 309.423 210.996C296.802 217.4 284.934 225.427 271.278 229.571C256.73 234.012 241.613 234.487 226.562 235.607C210.86 236.754 195.14 238.795 179.95 243.025C176.775 243.886 172.308 258.653 170.878 261.896C167.883 268.698 165.32 275.62 162.951 282.655C185.179 277.405 202.775 261.517 223.397 252.558C233.795 248.057 244.715 247.172 255.602 244.548C266.142 242.009 275.351 236.319 284.88 231.399C280.029 235.139 276.532 240.264 272.116 244.441C266.551 249.664 260.426 254.248 254.065 258.408C241.836 266.404 228.616 274.552 214.542 278.831C200.563 283.078 185.737 282.622 171.466 285.421C168.065 286.074 164.68 286.843 161.322 287.669C159.893 292.101 158.547 296.561 157.306 301.067C155.283 308.472 153.61 315.969 152.036 323.473C164.101 325.071 174.545 319.137 186.247 318.464C197.615 317.817 208.931 319.297 220.413 318.456C231.01 317.674 241.465 317.902 251.745 320.828C259.205 322.963 270.254 325.707 275.522 331.761C253.259 329.782 232.141 340.076 210.013 340.437C190.002 340.773 168.531 335.973 151.764 324.698C149.038 337.964 147.456 351.335 145.64 364.737C144.831 370.692 144.199 376.642 143.629 382.604C143.014 389.128 139.519 387.296 134.379 387.388C136.018 387.347 133.537 380.941 134.379 387.388L134.391 387.327Z" fill="#EB99A6"/>
<path d="M264.079 393.651C261.721 408.039 278.586 398.661 278.261 387.471C277.844 373.851 260.32 383.58 264.079 393.651C263.914 394.711 262.304 388.919 264.079 393.651Z" fill="white"/>
<path d="M292.355 384.827C285.741 382.469 277.241 400.792 285.063 403.046C292.349 405.164 301.048 387.924 292.355 384.827C290.37 384.119 296.796 386.409 292.355 384.827Z" fill="white"/>
<path d="M323.535 371.505C316.92 369.148 308.421 387.47 316.243 389.725C323.529 391.842 332.228 374.603 323.535 371.505C321.55 370.798 327.976 373.088 323.535 371.505Z" fill="white"/>
<path d="M249.337 370.774C243.169 383.751 259.752 381.141 263.224 371.25C268.207 357.266 248.393 358.032 249.337 370.774C248.64 372.283 249.238 369.408 249.337 370.774Z" fill="white"/>
<path d="M281.841 361.858C275.673 374.834 292.256 372.225 295.728 362.334C300.711 348.35 280.898 349.116 281.841 361.858C281.144 363.367 281.742 360.492 281.841 361.858Z" fill="white"/>
<path d="M249.61 413.786C256.204 412.462 261.824 396.095 252.825 394.752C240.014 392.902 239.846 418.772 249.61 413.786C247.252 415.022 250.247 413.64 249.61 413.786Z" fill="white"/>
<path d="M227.602 394.709C237.102 403.312 247.565 380.525 236.53 376.38C228.171 373.241 220.12 390.605 227.602 394.709C228.21 395.245 221.109 391.117 227.602 394.709Z" fill="white"/>
<path d="M174.364 411.164C183.863 419.767 194.326 396.98 183.291 392.835C174.932 389.696 166.881 407.06 174.364 411.164C174.971 411.7 167.87 407.572 174.364 411.164Z" fill="white"/>
<path d="M276.798 433.112C282.865 433.57 288.76 421.508 284.952 416.956C274.889 404.851 263.573 432.126 276.798 433.112C273.9 432.878 279.238 433.289 276.798 433.112Z" fill="white"/>
<path d="M319.588 438.764C325.654 439.222 331.55 427.16 327.741 422.609C317.679 410.504 306.362 437.778 319.588 438.764C316.69 438.53 322.028 438.941 319.588 438.764Z" fill="white"/>
<path d="M264.897 343.095C272.578 355.31 286.684 335.897 278.537 327.83C270.205 319.536 260.105 335.477 264.897 343.095C265.313 343.723 260.75 336.506 264.897 343.095Z" fill="white"/>
<path d="M245.103 357.552C252.501 351.136 252.953 327.604 240.338 336.26C230.266 343.159 234.927 366.384 245.103 357.552Z" fill="white"/>
<path d="M229.157 311.799C236.554 305.384 237.007 281.852 224.392 290.507C214.319 297.407 218.981 320.632 229.157 311.799Z" fill="white"/>
<path d="M293.723 319.131C285.029 323.806 286.727 345.336 295.773 342.064C306.402 338.238 307.759 311.567 293.723 319.131C288.654 321.85 294.445 318.749 293.723 319.131Z" fill="white"/>
</svg>
