<svg width="95" height="35" viewBox="0 0 95 35" fill="none" xmlns="http://www.w3.org/2000/svg">
  <g id="Asset 3 1" clip-path="url(#clip0_2_131)">
    <g id="Layer 2">
      <g id="Group">
        <path id="Vector"
          d="M8.31372 9.81008L8.40713 9.51211C8.66401 9.00786 8.87419 8.52652 9.03766 8.02226C9.17778 7.54093 9.41131 7.03667 9.73825 6.53241C10.0885 5.95939 10.5556 5.29469 11.1394 4.53831C11.7233 3.78192 12.3771 3.07138 13.1011 2.40668C13.825 1.74198 14.5957 1.16896 15.4364 0.710541C16.2537 0.252126 17.1178 0.0229187 17.9585 0.0229187C18.4256 0.0229187 18.8226 0.206285 19.1028 0.573017C19.4064 0.939749 19.6399 1.39816 19.8034 1.94826C19.9902 2.49836 20.107 3.11722 20.177 3.82776C20.2471 4.53831 20.2938 5.20301 20.3172 5.84479C20.3172 6.48657 20.3172 7.10543 20.3172 7.65553C20.3172 8.20563 20.3172 8.6182 20.3172 8.91617C20.3172 11.277 20.177 13.6149 19.8735 15.9299C19.5699 18.2449 19.4297 20.5828 19.4297 22.9437C19.4297 24.5481 19.5232 26.038 19.6633 27.4132C19.8267 28.7885 20.0836 29.9804 20.4106 30.943C20.7609 31.9057 21.1812 32.6392 21.695 33.0976C22.2088 33.556 22.8159 33.6706 23.5399 33.3955C24.2405 33.1434 25.0578 32.4558 25.9452 31.4014C26.8326 30.3242 27.8135 28.7197 28.8644 26.611L29.0745 26.5193C29.0745 26.5193 29.238 26.6798 29.3081 26.9777C29.3781 27.2757 29.4015 27.4591 29.4015 27.5278C29.4015 28.2613 29.1913 29.0635 28.7943 29.9116C28.3973 30.7826 27.8602 31.5848 27.1829 32.3183C26.5057 33.0517 25.7351 33.6706 24.8476 34.1978C23.9602 34.7249 23.0728 34.9542 22.162 34.9542C21.298 34.9542 20.504 34.702 19.7567 34.2207C19.0094 33.7164 18.3555 33.0976 17.7717 32.2953C17.1879 31.516 16.6507 30.6221 16.207 29.6365C15.7633 28.6509 15.3897 27.6654 15.1094 26.6798C14.8292 25.6942 14.619 24.7544 14.4789 23.8605C14.3388 22.9666 14.3154 22.2331 14.3621 21.6601C14.4556 20.3536 14.4789 19.093 14.4789 17.8553C14.4789 16.6175 14.5723 15.3569 14.8059 14.0504C15.016 13.0648 15.2262 12.0563 15.4597 11.0249C15.6933 9.99345 15.9268 8.96202 16.137 7.90766C16.3705 6.8533 16.534 5.82187 16.6974 4.76752C16.8376 3.71316 16.9076 2.70465 16.9076 1.71905C15.8334 2.13163 14.8759 2.79633 14.0352 3.759C13.1711 4.72167 12.4005 5.84479 11.6999 7.10543C10.9993 8.389 10.4155 9.76424 9.90172 11.2082C9.38796 12.6523 8.99096 14.1192 8.66401 15.5632C8.33707 17.0072 8.10354 18.3595 7.94007 19.6431C7.7766 20.9266 7.70654 22.0039 7.70654 22.8749C7.70654 24.0897 7.79995 25.2816 7.96342 26.4735C8.15025 27.6424 8.22031 28.8572 8.22031 30.072C8.22031 30.3012 8.1736 30.668 8.10354 31.1493C8.03348 31.6306 7.91672 32.112 7.75325 32.5933C7.58978 33.0747 7.3796 33.5101 7.09936 33.8769C6.84248 34.2436 6.51554 34.4499 6.16524 34.4499C4.97424 34.4728 4.01677 34.2436 3.24612 33.7623C2.47547 33.258 1.86829 32.6392 1.42458 31.8828C0.980877 31.1264 0.653935 30.2783 0.443758 29.3386C0.233581 28.3988 0.0934629 27.482 0.0467569 26.5881C-0.0233021 25.6942 -0.0233021 24.8919 5.08577e-05 24.1585C0.0234039 23.425 0.0467569 22.852 0.0467569 22.4853C0.0467569 21.4767 0.0467569 20.3078 0.116816 19.0013C0.163522 17.6948 0.233581 16.3425 0.326993 14.9443C0.420405 13.5462 0.53717 12.1709 0.653935 10.8186C0.7707 9.46627 0.910818 8.20563 1.05094 7.08251C1.19105 5.95939 1.33117 4.9738 1.47129 4.1945C1.61141 3.41519 1.77488 2.86509 1.915 2.61296C2.03176 2.38376 2.26529 2.15455 2.59223 1.92534C2.94253 1.69613 3.17606 1.46693 3.31618 1.23772C3.40959 1.14604 3.57306 1.07727 3.80659 1.05435C4.04012 1.00851 4.297 0.96267 4.55389 0.939749C4.81077 0.916828 5.06765 0.870987 5.32453 0.848066C5.58142 0.825145 5.76824 0.802225 5.93171 0.802225L7.35625 1.23772C7.87001 1.81074 8.1736 2.45252 8.31372 3.16306C8.45384 3.87361 8.50054 4.58415 8.45384 5.36346C8.40713 6.11984 8.33707 6.89915 8.22031 7.67845C8.10354 8.45776 8.05684 9.19122 8.08019 9.87884L8.29037 9.92469L8.31372 9.81008Z"
          fill="black" />
        <path id="Vector_2"
          d="M46.9628 31.9974C47.7335 32.1349 48.3873 31.8828 48.9245 31.1951C49.4616 30.5075 49.9987 29.3386 50.5125 27.6883C50.5125 27.5049 50.5592 27.3674 50.6759 27.2528C50.7694 27.1382 50.8861 27.0694 51.0029 27.0465C51.1196 27.0465 51.2364 27.0923 51.3298 27.2528C51.4232 27.4132 51.4933 27.6424 51.4933 27.9862C51.4933 28.6051 51.3999 29.2469 51.2131 29.9803C51.0262 30.6909 50.7226 31.3327 50.3256 31.9057C49.9286 32.4787 49.4382 32.8913 48.8311 33.1893C48.2472 33.4872 47.5233 33.4872 46.7059 33.2351C45.9353 33.0059 45.3281 32.7079 44.8844 32.3183C44.4407 31.9286 44.0904 31.539 43.8569 31.1035C43.6233 30.668 43.4365 30.2554 43.2964 29.8428C43.1563 29.4302 43.0162 29.0864 42.8293 28.7885C42.5724 29.224 42.2689 29.7053 41.9653 30.2325C41.6617 30.7596 41.288 31.241 40.8443 31.6765C40.4006 32.112 39.8635 32.4787 39.233 32.7767C38.6024 33.0746 37.8318 33.2351 36.9444 33.2351C35.8001 33.2351 34.7959 32.7538 34.0019 31.814C33.1845 30.8743 32.5307 29.7511 32.0169 28.4905C31.5031 27.2069 31.1528 25.9234 30.8959 24.6398C30.6391 23.3562 30.5457 22.3477 30.5457 21.6601C30.5457 19.4139 30.5924 17.7407 30.7091 16.5946C30.8025 15.4486 30.966 14.6234 31.1995 14.0963C31.4331 13.5691 31.69 13.2482 32.0169 13.1336C32.3438 13.019 32.7175 12.8815 33.1612 12.6981C33.6983 12.4918 34.2121 12.3314 34.7258 12.1938C35.2396 12.0563 35.7067 11.9875 36.1504 11.9875C36.5941 11.9875 36.921 12.0334 37.1779 12.1709C37.4348 12.3084 37.5516 12.5147 37.5516 12.8127C37.5516 13.0419 37.4815 13.6378 37.3647 14.5776C37.248 15.5173 37.1078 16.6405 36.9677 17.9011C36.8276 19.1847 36.6875 20.537 36.5941 21.9581C36.5007 23.3792 36.454 24.6856 36.4773 25.8775C36.5007 27.0694 36.6408 28.0321 36.8743 28.7655C37.1078 29.499 37.5048 29.8428 38.0186 29.797C38.439 29.797 38.8827 29.5678 39.3497 29.1323C39.8168 28.6968 40.2605 28.1467 40.6809 27.482C41.1012 26.8173 41.4282 26.0838 41.7084 25.2816C41.9653 24.4794 42.1054 23.7001 42.1054 22.9437C42.1054 22.6915 42.1054 22.1644 42.1754 21.3621C42.2455 20.5599 42.2689 19.7118 42.3156 18.7721C42.3623 17.8323 42.409 16.9843 42.4557 16.182C42.5024 15.3798 42.5257 14.8526 42.5257 14.6005C42.5257 13.9358 42.7593 13.5003 43.203 13.317C43.67 13.1336 44.2072 13.1794 44.861 13.4774C45.1646 13.6149 45.3515 13.8212 45.4215 14.0963C45.4916 14.3484 45.5149 14.8297 45.4916 15.5403C45.4682 16.2508 45.3982 17.2135 45.3047 18.4741C45.2113 19.7348 45.1646 21.4309 45.1646 23.5396C45.1646 23.998 45.1179 24.6627 45.0479 25.5108C44.9778 26.3589 44.9545 27.2069 45.0012 28.0779C45.0479 28.9489 45.2113 29.7741 45.4682 30.5075C45.7251 31.2639 46.2155 31.7911 46.9395 32.0661L46.9628 31.9974Z"
          fill="black" />
        <path id="Vector_3"
          d="M64.4774 9.62673C64.2206 10.0851 63.917 10.4519 63.5667 10.7269C63.2164 11.002 62.796 11.2312 62.2823 11.4145C61.7685 11.5979 61.1613 11.7813 60.4841 11.9417C59.8068 12.1022 59.0128 12.3085 58.0787 12.5377C57.962 12.6523 57.8919 12.8586 57.8452 13.1794C57.7985 13.4774 57.7751 13.8212 57.7518 14.188C57.7284 14.5547 57.7518 14.8985 57.7518 15.2423V15.9529C57.7518 16.48 57.7051 17.2135 57.6117 18.1762C57.5182 19.1388 57.4248 20.1932 57.3548 21.3392C57.2847 22.4853 57.2147 23.6772 57.2147 24.892C57.2147 26.1068 57.2847 27.2299 57.4482 28.2613C57.6117 29.2927 57.8919 30.1637 58.2889 30.8743C58.6859 31.5848 59.2464 32.0203 59.9937 32.2037C60.4841 32.3412 60.9511 32.2037 61.3948 31.8369C61.8152 31.4473 62.2122 30.8972 62.5391 30.2325C62.8661 29.5678 63.193 28.7885 63.4733 27.9175C63.7535 27.0465 64.0104 26.2443 64.2439 25.4421C64.4774 24.6398 64.6876 23.9293 64.8978 23.3104C65.0846 22.6916 65.2948 22.2561 65.505 22.0269C65.5283 22.0956 65.5984 22.1644 65.6684 22.2561C65.7385 22.3477 65.7852 22.4165 65.7852 22.4624C65.7852 22.7832 65.7385 23.2875 65.6684 23.998C65.5984 24.7086 65.4583 25.5108 65.2714 26.3818C65.0846 27.2528 64.8277 28.1925 64.5008 29.1323C64.1739 30.072 63.7535 30.943 63.2397 31.7453C62.726 32.5475 62.1188 33.1893 61.3948 33.6935C60.6709 34.1978 59.8535 34.4499 58.9194 34.4499C58.7793 34.4499 58.5458 34.4041 58.2422 34.3124C57.9386 34.2207 57.6584 34.129 57.3548 34.0144C57.0512 33.8998 56.771 33.7852 56.5141 33.6706C56.2572 33.556 56.0704 33.4414 55.9769 33.3726C54.9728 32.5704 54.2255 31.3785 53.7584 29.8199C53.2914 28.2613 52.9644 26.611 52.7776 24.869C52.5908 23.1271 52.5207 21.4309 52.5441 19.7806C52.5674 18.1303 52.5908 16.778 52.5908 15.7237L52.4974 13.4087C52.077 13.2941 51.7267 13.2711 51.3998 13.3399C51.0962 13.4087 50.7926 13.5003 50.5357 13.5691C50.2788 13.6608 49.9986 13.7295 49.695 13.7754C49.3914 13.8212 49.0645 13.7754 48.6675 13.6149L48.5273 13.2253C48.5273 12.9732 48.6441 12.721 48.8776 12.4689C49.1112 12.2168 49.4148 12.0105 49.7417 11.8271C50.092 11.6438 50.4189 11.4833 50.7692 11.3458C51.1195 11.2083 51.3764 11.1624 51.5866 11.1624C51.9369 11.1624 52.1938 11.0707 52.3572 10.8644C52.5207 10.6582 52.6375 10.406 52.6842 10.131C52.7309 9.85594 52.7542 9.53505 52.7542 9.23708C52.7542 8.93911 52.7542 8.66406 52.7542 8.43485V7.56386C52.7542 7.24297 52.871 6.945 53.0812 6.66995C53.2914 6.3949 53.6884 6.16569 54.2021 5.98233C54.7159 5.79896 55.5566 5.68436 56.6542 5.66144C57.2147 5.66144 57.6117 5.75312 57.8218 5.91357C58.032 6.07401 58.1721 6.32614 58.1955 6.62411C58.2188 6.92208 58.1955 7.28881 58.1488 7.67846C58.1021 8.06812 58.0554 8.45777 58.0554 8.87034C58.0554 9.00787 58.0554 9.16831 58.1021 9.35168C58.1254 9.53505 58.1721 9.69549 58.2422 9.83302C58.3356 9.90178 58.5691 9.90178 58.9194 9.83302C59.2931 9.78717 59.7134 9.71841 60.1805 9.60381C60.6475 9.51213 61.1613 9.39752 61.6751 9.30584C62.1888 9.21416 62.6559 9.14539 63.0763 9.12247C63.4966 9.09955 63.8236 9.12247 64.1038 9.19124C64.3607 9.26 64.5008 9.42044 64.4541 9.64965L64.4774 9.62673Z"
          fill="black" />
        <path id="Vector_4"
          d="M78.7695 9.62673C78.5126 10.0851 78.209 10.4519 77.8588 10.7269C77.5085 11.002 77.0881 11.2312 76.5743 11.4145C76.0606 11.5979 75.4534 11.7813 74.7762 11.9417C74.0989 12.1022 73.3049 12.3085 72.3708 12.5377C72.254 12.6523 72.184 12.8586 72.1373 13.1794C72.0906 13.4774 72.0672 13.8212 72.0439 14.188C72.0205 14.5547 72.0439 14.8985 72.0439 15.2423V15.9529C72.0439 16.48 71.9972 17.2135 71.9037 18.1762C71.8103 19.1388 71.7169 20.1932 71.6469 21.3392C71.5768 22.4853 71.5067 23.6772 71.5067 24.892C71.5067 26.1068 71.6001 27.2299 71.7403 28.2613C71.9037 29.2927 72.184 30.1637 72.581 30.8743C72.978 31.5848 73.5384 32.0203 74.2857 32.2037C74.7762 32.3412 75.2432 32.2037 75.6869 31.8369C76.1073 31.4473 76.5043 30.8972 76.8312 30.2325C77.1582 29.5678 77.4851 28.7885 77.7653 27.9175C78.0456 27.0465 78.3025 26.2443 78.536 25.4421C78.7695 24.6398 78.9797 23.9293 79.1899 23.3104C79.3767 22.6916 79.5869 22.2561 79.797 22.0269C79.8204 22.0956 79.8905 22.1644 79.9605 22.2561C80.0306 22.3477 80.0773 22.4165 80.0773 22.4624C80.0773 22.7832 80.0306 23.2875 79.9605 23.998C79.8905 24.7086 79.7503 25.5108 79.5635 26.3818C79.3767 27.2528 79.1198 28.1925 78.7929 29.1323C78.4659 30.072 78.0456 30.943 77.5318 31.7453C77.018 32.5475 76.4109 33.1893 75.6869 33.6935C74.963 34.1978 74.1456 34.4499 73.2115 34.4499C73.0714 34.4499 72.8379 34.4041 72.5343 34.3124C72.2307 34.2207 71.9504 34.129 71.6469 34.0144C71.3433 33.8998 71.063 33.7852 70.8061 33.6706C70.5493 33.556 70.3624 33.4414 70.269 33.3726C69.2648 32.5704 68.5176 31.3785 68.0505 29.8199C67.5834 28.2613 67.2565 26.611 67.0697 24.869C66.8828 23.1271 66.8128 21.4309 66.8595 19.7806C66.8828 18.1303 66.9062 16.778 66.9062 15.7237L66.8128 13.4087C66.3924 13.2941 66.0421 13.2711 65.7152 13.3399C65.4116 13.4087 65.108 13.5003 64.8511 13.5691C64.5942 13.6608 64.314 13.7295 64.0104 13.7754C63.7068 13.8212 63.3799 13.7754 62.9829 13.6149L62.8428 13.2253C62.8428 12.9732 62.9595 12.721 63.1931 12.4689C63.4266 12.2168 63.7068 12.0105 64.0571 11.8271C64.4074 11.6438 64.7344 11.4833 65.0847 11.3458C65.435 11.2083 65.6918 11.1624 65.902 11.1624C66.2523 11.1624 66.5092 11.0707 66.6727 10.8644C66.8361 10.6582 66.9529 10.406 66.9996 10.131C67.0463 9.85594 67.0697 9.53505 67.0697 9.23708C67.0697 8.93911 67.0697 8.66406 67.0697 8.43485V7.56386C67.0697 7.24297 67.1864 6.945 67.3966 6.66995C67.6301 6.3949 68.0038 6.16569 68.5176 5.98233C69.0547 5.79896 69.872 5.68436 70.9463 5.66144C71.5067 5.66144 71.9037 5.75312 72.1139 5.91357C72.3241 6.07401 72.4642 6.32614 72.4876 6.62411C72.5109 6.92208 72.4876 7.28881 72.4409 7.67846C72.3942 8.06812 72.3474 8.45777 72.3474 8.87034C72.3474 9.00787 72.3474 9.16831 72.3942 9.35168C72.4175 9.53505 72.4642 9.69549 72.5343 9.83302C72.6277 9.90178 72.8612 9.90178 73.2115 9.83302C73.5852 9.78717 74.0055 9.71841 74.4726 9.60381C74.9396 9.51213 75.4534 9.39752 75.9672 9.30584C76.4809 9.21416 76.948 9.14539 77.3683 9.12247C77.7887 9.09955 78.1156 9.12247 78.3959 9.19124C78.6528 9.26 78.7929 9.42044 78.7462 9.64965L78.7695 9.62673Z"
          fill="black" />
        <path id="Vector_5"
          d="M81.2918 13.0648C81.2918 12.9273 81.3619 12.8127 81.4786 12.7439C81.6187 12.6752 81.7822 12.6064 81.969 12.5606C82.1559 12.5147 82.366 12.4918 82.5529 12.4918H83.0199C84.3977 12.4918 85.3786 12.721 85.939 13.2024C86.4995 13.6837 86.8498 14.3026 86.9899 15.036C87.13 15.7695 87.13 16.5946 86.9899 17.5115C86.8498 18.4283 86.7797 19.3222 86.7797 20.1932V27.5508C86.7797 28.2384 86.8965 28.9718 87.1534 29.7053C87.4103 30.4388 87.7372 31.0806 88.1342 31.6536C88.5312 32.2037 88.9749 32.5933 89.4653 32.8225C89.9558 33.0517 90.4228 33.0059 90.9132 32.6392C91.2869 32.3412 91.6372 31.9515 91.9641 31.4244C92.2677 30.8972 92.5479 30.3242 92.7581 29.6824C92.9916 29.0406 93.1785 28.353 93.3419 27.6424C93.5054 26.9319 93.6222 26.1984 93.7156 25.5108C93.9491 23.8605 94.0892 22.0498 94.1593 20.1015C94.2294 20.0786 94.3228 20.0557 94.4629 20.0557C94.7198 20.0557 94.8832 20.1703 94.9299 20.4224C94.9767 20.6745 95 20.9267 95 21.1788C95 21.7976 95 22.6916 94.9533 23.9064C94.9299 25.1212 94.8132 26.3818 94.6264 27.7341C94.4395 29.0864 94.1126 30.37 93.6455 31.5848C93.1785 32.7996 92.5246 33.7164 91.6839 34.3353C91.5671 34.427 91.3569 34.5187 91.0534 34.6333C90.7498 34.7479 90.3995 34.8396 89.9791 34.8854C89.5588 34.9542 89.0683 34.9542 88.5079 34.9542C87.9474 34.9542 87.3869 34.8396 86.8031 34.6333C85.6588 34.2436 84.7247 33.6706 84.0007 32.8913C83.3002 32.112 82.7397 31.1952 82.3193 30.1637C81.899 29.1323 81.6421 28.0321 81.502 26.8402C81.3619 25.6483 81.2918 24.4794 81.2684 23.3104C81.2451 22.1415 81.2684 21.0413 81.3151 19.964C81.3619 18.8867 81.4086 17.947 81.4086 17.1218C81.4086 16.4571 81.4086 15.7695 81.3619 15.0589C81.3151 14.3484 81.3151 13.6608 81.3151 13.0419L81.2918 13.0648ZM82.1792 2.65881C82.4361 2.65881 82.7397 2.70466 83.09 2.79634C83.4403 2.88802 83.7439 3.00262 84.0241 3.14015C84.3043 3.27767 84.5612 3.46104 84.748 3.66733C84.9582 3.87361 85.0516 4.0799 85.0516 4.30911C85.0516 4.81336 85.1684 5.27178 85.3786 5.70727C85.5887 6.14277 85.7055 6.48658 85.7055 6.76163C85.7055 7.0596 85.5654 7.28881 85.2618 7.49509C84.9582 7.70138 84.7013 7.79306 84.4678 7.79306C84.0241 7.79306 83.6037 7.6097 83.2067 7.22004C82.8097 6.83039 82.4594 6.3949 82.1792 5.89064C81.899 5.38638 81.6654 4.88213 81.502 4.37787C81.3385 3.87361 81.2684 3.46104 81.2684 3.18599C81.2684 2.95678 81.3619 2.81926 81.572 2.7505C81.7822 2.68173 81.969 2.65881 82.1559 2.65881H82.1792Z"
          fill="black" />
      </g>
    </g>
  </g>
  <defs>
    <clipPath id="clip0_2_131">
      <rect width="95" height="35" fill="white" />
    </clipPath>
  </defs>
</svg>